<?xml version="1.0" encoding="UTF-8"?><svg id="Layer_1" xmlns="http://www.w3.org/2000/svg" xmlns:xlink="http://www.w3.org/1999/xlink" viewBox="0 0 1209.03 500"><defs><style>.cls-1{fill:none;}.cls-2{fill:url(#linear-gradient);}.cls-3{fill:#f2680a;}.cls-4{fill:#333;}</style><linearGradient id="linear-gradient" x1="82.92" y1="241.27" x2="394.23" y2="241.27" gradientUnits="userSpaceOnUse"><stop offset="0" stop-color="#f15a24"/><stop offset="1" stop-color="#ffb232"/></linearGradient></defs><g><path class="cls-2" d="m320.04,76.44c14.13,0,27.41,5.5,37.39,15.49s15.49,23.27,15.49,37.4-5.5,27.41-15.49,37.4c-9.99,9.99-23.27,15.49-37.39,15.49s-27.41-5.5-37.4-15.49c-9.99-9.99-15.49-23.27-15.49-37.39s5.5-27.41,15.49-37.4,23.27-15.49,37.39-15.49m0-43.27c-24.61,0-49.22,9.39-67.99,28.16-37.55,37.55-37.55,98.43,0,135.98,18.77,18.78,43.38,28.16,67.99,28.16s49.22-9.39,67.99-28.16c37.55-37.55,37.55-98.43,0-135.98-18.78-18.78-43.38-28.16-67.99-28.16h0Zm-101.99,300.13c28.16-28.16,28.16-73.82,0-101.99-28.16-28.16-73.82-28.16-101.99,0-28.16,28.16-28.16,73.82,0,101.99,28.16,28.16,73.82,28.16,101.99,0Zm-135.98,101.99c18.78-18.78,18.78-49.22,0-67.99-18.78-18.78-49.22-18.78-67.99,0-18.78,18.78-18.78,49.22,0,67.99,18.78,18.78,49.22,18.78,67.99,0Z"/><g><path class="cls-4" d="m629.39,148.66v33.17c-28.56,0-45.29,17.59-45.29,44.71v71.53h-32.31v-147.1h32.31v23.94c10.96-16.44,26.54-26.25,45.29-26.25Z"/><path class="cls-3" d="m796.69,150.97v147.1h-32.3v-22.79c-11.83,16.16-30,26.25-51.64,26.25-41.53,0-72.4-33.17-72.4-77.02s30.87-77.02,72.4-77.02c21.63,0,39.8,10.09,51.64,26.25v-22.78h32.3Zm-32.3,73.55c0-25.96-19.32-45.86-45.29-45.86s-45.58,19.9-45.58,45.86,19.32,45.86,45.58,45.86,45.29-19.9,45.29-45.86Z"/><path class="cls-3" d="m830.74,105.68c0-11.83,8.94-20.48,20.48-20.48s20.76,8.65,20.76,20.48-8.94,20.48-20.76,20.48-20.48-8.94-20.48-20.48Zm4.32,45.29h32.31v147.1h-32.31v-147.1Z"/><path class="cls-4" d="m896.5,254.8h32.88c0,10.39,8.66,18.75,19.91,18.75,10.39,0,18.75-6.63,18.75-15.58,0-10.96-10.97-16.72-25.96-20.76-21.63-5.48-43.56-16.73-43.56-45.29s23.08-44.42,49.91-44.42c29.13,0,50.48,19.91,50.48,44.71h-32.88c0-9.23-7.5-16.72-17.89-16.72-9.23,0-16.73,6.35-16.73,14.42,0,10.39,10.39,16.44,26.55,20.48,23.94,6.06,42.98,18.46,42.98,44.71,0,29.14-23.08,46.44-51.93,46.44-30.57,0-52.5-20.77-52.5-46.73Z"/><path class="cls-4" d="m1177.17,236.92h-121.73c4.62,21.34,21.93,35.48,44.13,35.48,18.75,0,34.04-8.65,40.39-21.05h35.19c-10.68,29.71-39.52,50.19-75.86,50.19-44.72,0-78.46-33.17-78.46-77.02s33.75-77.02,78.46-77.02,78.74,33.17,78.74,77.31c0,3.17-.29,8.65-.86,12.11Zm-121.44-26.54h87.4c-5.19-20.2-22.5-33.75-43.84-33.75s-38.08,13.55-43.56,33.75Z"/></g><g><path class="cls-4" d="m576.11,401.23v2.33h11.85v10.79h-11.85v43.16h-11.85v-43.16h-9.1v-10.79h9.1v-2.97c0-14.18,7.72-19.99,23.7-19.99v10.79c-7.73,0-11.85,2.75-11.85,9.84Z"/><path class="cls-4" d="m626.14,402.7v12.17c-10.48,0-16.61,6.45-16.61,16.39v26.24h-11.85v-53.95h11.85v8.78c4.02-6.04,9.73-9.63,16.61-9.63Z"/><path class="cls-4" d="m629.94,430.53c0-16.08,12.38-28.25,28.88-28.25s28.87,12.17,28.87,28.25-12.48,28.25-28.87,28.25-28.88-12.16-28.88-28.25Zm45.49,0c0-9.52-7.09-16.82-16.6-16.82s-16.71,7.3-16.71,16.82,7.19,16.83,16.71,16.83,16.6-7.31,16.6-16.83Z"/><path class="cls-4" d="m783.42,422.49v35.02h-11.84v-31.52c0-7.41-4.66-12.27-11.95-12.27s-12.81,4.98-12.81,12.48v31.32h-11.84v-31.52c0-7.41-4.66-12.27-11.95-12.27s-12.8,4.98-12.8,12.48v31.32h-11.85v-53.95h11.85v6.98c3.91-5.39,9.62-8.25,16.7-8.25,8.36,0,14.7,3.92,17.78,10.37,4.02-6.66,10.47-10.37,18.83-10.37,11.95,0,19.89,8.05,19.89,20.21Z"/><path class="cls-4" d="m875.87,403.56v48.12c0,16.4-11.01,27.19-27.62,27.19-14.07,0-24.01-7.73-27.08-20.1h12.17c2.01,5.61,7.62,9.2,14.91,9.2,9.52,0,15.77-6.45,15.77-16.39v-3.49c-4.34,5.82-11.01,9.31-18.94,9.31-15.23,0-26.55-11.85-26.55-27.5s11.31-27.62,26.55-27.62c7.93,0,14.6,3.49,18.94,9.31v-8.04h11.85Zm-11.85,26.34c0-9.62-7.09-16.83-16.61-16.83s-16.71,7.2-16.71,16.83,7.19,16.71,16.71,16.71,16.61-7.19,16.61-16.71Z"/><path class="cls-4" d="m918.17,402.7v12.17c-10.48,0-16.61,6.45-16.61,16.39v26.24h-11.85v-53.95h11.85v8.78c4.02-6.04,9.73-9.63,16.61-9.63Z"/><path class="cls-4" d="m979.51,403.56v53.95h-11.85v-8.36c-4.34,5.93-11,9.62-18.93,9.62-15.24,0-26.55-12.16-26.55-28.25s11.31-28.25,26.55-28.25c7.93,0,14.59,3.71,18.93,9.63v-8.36h11.85Zm-11.85,26.97c0-9.52-7.09-16.82-16.6-16.82s-16.71,7.3-16.71,16.82,7.08,16.83,16.71,16.83,16.6-7.31,16.6-16.83Z"/><path class="cls-4" d="m1045.72,403.56l-22.85,53.95h-12.38l-22.96-53.95h13.54l15.77,39.34,15.65-39.34h13.22Z"/><path class="cls-4" d="m1106.65,403.56l-31.42,74.04h-12.8l8.78-20.52-22.74-53.52h13.54l15.76,39.34,15.66-39.34h13.22Z"/><path class="cls-4" d="m1146.2,414.35h-11.53v43.16h-11.85v-43.16h-10.89v-10.79h10.89v-15.87h11.85v15.87h11.53v10.79Z"/><path class="cls-4" d="m1209.03,403.56l-31.42,74.04h-12.8l8.78-20.52-22.74-53.52h13.54l15.77,39.34,15.65-39.34h13.22Z"/></g></g><rect class="cls-1" width="1209.03" height="500"/></svg>