<?xml version="1.0" encoding="utf-8"?>
<!-- Generator: Adobe Illustrator 27.6.1, SVG Export Plug-In . SVG Version: 6.00 Build 0)  -->
<svg version="1.1" id="Layer_1" xmlns="http://www.w3.org/2000/svg" xmlns:xlink="http://www.w3.org/1999/xlink" x="0px" y="0px"
	 viewBox="0 0 629.3 230" style="enable-background:new 0 0 629.3 230;" xml:space="preserve">
<style type="text/css">
	.st0{fill:#041D35;}
	.st1{fill:#3CEBB7;}
</style>
<g>
	<g>
		<path class="st0" d="M81.2,71.5v32.9c-28.3,0-44.9,17.4-44.9,44.3v70.9h-32V73.8h32v23.7C47.1,81.2,62.6,71.5,81.2,71.5L81.2,71.5
			z"/>
		<path class="st1" d="M247,73.8v145.8h-32V197c-11.7,16-29.7,26-51.2,26c-41.2,0-71.8-32.9-71.8-76.4s30.6-76.4,71.8-76.4
			c21.5,0,39.5,10,51.2,26V73.8H247L247,73.8z M215,146.7c0-25.7-19.2-45.5-44.9-45.5s-45.2,19.7-45.2,45.5s19.2,45.5,45.2,45.5
			S215,172.4,215,146.7L215,146.7z"/>
		<path class="st1" d="M280.8,28.8c0-11.7,8.9-20.3,20.3-20.3s20.6,8.6,20.6,20.3s-8.9,20.3-20.6,20.3S280.8,40.3,280.8,28.8z
			 M285.1,73.8h32v145.8h-32V73.8z"/>
		<path class="st0" d="M346,176.7h32.6c0,10.3,8.6,18.6,19.7,18.6c10.3,0,18.6-6.6,18.6-15.4c0-10.9-10.9-16.6-25.7-20.6
			c-21.5-5.4-43.2-16.6-43.2-44.9s22.9-44,49.5-44c28.9,0,50,19.7,50,44.3h-32.6c0-9.1-7.4-16.6-17.7-16.6
			c-9.2,0-16.6,6.3-16.6,14.3c0,10.3,10.3,16.3,26.3,20.3c23.7,6,42.6,18.3,42.6,44.3c0,28.9-22.9,46-51.5,46
			C367.7,223,346,202.4,346,176.7L346,176.7z"/>
		<path class="st0" d="M624.2,159H503.6c4.6,21.2,21.7,35.2,43.8,35.2c18.6,0,33.8-8.6,40-20.9h34.9C611.7,202.7,583.1,223,547,223
			c-44.3,0-77.8-32.9-77.8-76.4s33.5-76.4,77.8-76.4s78.1,32.9,78.1,76.6C625.1,150.1,624.8,155.5,624.2,159L624.2,159z
			 M503.8,132.7h86.7c-5.2-20-22.3-33.5-43.5-33.5S509.3,112.6,503.8,132.7L503.8,132.7z"/>
	</g>
</g>
</svg>
